<?xml version="1.0" standalone="no"?><!DOCTYPE svg PUBLIC "-//W3C//DTD SVG 1.1//EN" "http://www.w3.org/Graphics/SVG/1.1/DTD/svg11.dtd"><svg t="1650095265898" class="icon" viewBox="0 0 1024 1024" version="1.1" xmlns="http://www.w3.org/2000/svg" p-id="6437" xmlns:xlink="http://www.w3.org/1999/xlink" width="200" height="200"><defs><style type="text/css">@font-face { font-family: feedback-iconfont; src: url("//at.alicdn.com/t/font_1031158_u69w8yhxdu.woff2?t=1630033759944") format("woff2"), url("//at.alicdn.com/t/font_1031158_u69w8yhxdu.woff?t=1630033759944") format("woff"), url("//at.alicdn.com/t/font_1031158_u69w8yhxdu.ttf?t=1630033759944") format("truetype"); }
</style></defs><path d="M726.853818 679.470545h125.393455v52.13091H726.853818zM653.870545 498.408727h198.190546v52.130909H653.870545zM653.870545 317.44h198.190546v52.130909H653.870545z" fill="#f4ea2a" p-id="6438"></path><path d="M898.978909 87.133091H125.207273a75.403636 75.403636 0 0 0-75.403637 75.217454v699.112728a75.589818 75.589818 0 0 0 75.403637 75.403636h773.771636a75.496727 75.496727 0 0 0 75.217455-75.403636v-699.112728a75.217455 75.217455 0 0 0-75.217455-75.217454z m23.086546 774.330182A23.086545 23.086545 0 0 1 899.165091 884.363636H125.207273a23.272727 23.272727 0 0 1-23.272728-23.272727V674.536727L163.746909 698.181818l62.370909 105.658182 128.558546-167.563636h12.474181l128.372364 167.563636L557.986909 698.181818l111.709091-41.984-119.342545-156.672a199.400727 199.400727 0 1 0-378.973091 0L102.4 590.848v-428.218182A23.272727 23.272727 0 0 1 125.207273 139.636364h773.771636a23.086545 23.086545 0 0 1 23.086546 23.086545zM524.288 551.563636l61.346909 80.430546-63.208727 23.831273-32.488727 55.016727-65.163637-84.526546a200.238545 200.238545 0 0 0 99.514182-75.031272z m-163.374545 33.419637A147.362909 147.362909 0 1 1 508.183273 437.527273a147.269818 147.269818 0 0 1-147.269818 147.456z m-64.139637 41.332363l-64.605091 83.781819-32.488727-55.109819-63.208727-23.738181 61.346909-80.616728a199.400727 199.400727 0 0 0 98.955636 74.472728z" fill="#f4ea2a" p-id="6439"></path></svg>