<?xml version="1.0" standalone="no"?><!DOCTYPE svg PUBLIC "-//W3C//DTD SVG 1.1//EN" "http://www.w3.org/Graphics/SVG/1.1/DTD/svg11.dtd"><svg t="1650095201045" class="icon" viewBox="0 0 1024 1024" version="1.1" xmlns="http://www.w3.org/2000/svg" p-id="6171" xmlns:xlink="http://www.w3.org/1999/xlink" width="200" height="200"><defs><style type="text/css">@font-face { font-family: feedback-iconfont; src: url("//at.alicdn.com/t/font_1031158_u69w8yhxdu.woff2?t=1630033759944") format("woff2"), url("//at.alicdn.com/t/font_1031158_u69w8yhxdu.woff?t=1630033759944") format("woff"), url("//at.alicdn.com/t/font_1031158_u69w8yhxdu.ttf?t=1630033759944") format("truetype"); }
</style></defs><path d="M158.5 252.4v-70.3l691.8 1.8v70.3z" fill="#F9B5A0" p-id="6172"></path><path d="M494 704.7H268.8c-10.4 0-18.9-10.1-18.9-22.5s8.4-22.5 18.9-22.5H494c10.4 0 18.9 10.1 18.9 22.5s-8.5 22.5-18.9 22.5zM510.4 551.1H268.7c-11.2 0-20.3-10.1-20.3-22.5s9.1-22.5 20.3-22.5h241.7c11.2 0 20.3 10.1 20.3 22.5s-9.2 22.5-20.3 22.5zM621.2 390.6H268.7c-11.2 0-20.3-10.1-20.3-22.5s9.1-22.5 20.3-22.5h352.5c11.2 0 20.3 10.1 20.3 22.5s-9.1 22.5-20.3 22.5zM922.8 358.9L859 298.1c-7.7-7.3-17.8-11.2-28.4-11-10.7 0.3-20.6 4.6-27.9 12.3L548.2 566.8c-2.4 2.5-3.9 5.8-4.3 9.3l-12.3 111.5c-0.5 5 1.2 9.9 4.9 13.3 3.1 3 7.2 4.5 11.4 4.4 0.7 0 1.4-0.1 2.1-0.2l110.7-17.8c3.4-0.6 6.6-2.2 9-4.8l254.4-267.3c7.3-7.7 11.2-17.8 11-28.4-0.2-10.7-4.6-20.6-12.3-27.9z" fill="#FE7743" p-id="6173"></path><path d="M650.3 656.5l-84.6 13.6 9.4-85.2 180.3-189.4 75.2 71.6zM901 393.1l-48.3 50.8-75.1-71.6 48.3-50.8c1.9-2 4.3-2.4 5.5-2.4 1.2 0 3.6 0.2 5.6 2.1l63.8 60.8c2 1.9 2.4 4.3 2.4 5.5-0.1 1.3-0.3 3.6-2.2 5.6z" fill="#F9B5A0" p-id="6174"></path><path d="M787.9 840.5H203c-45.5 0-82.5-37.9-82.5-84.4v-512c0-46.6 39.5-90.6 84.9-90.6h585c45.5 0 80.1 44.1 80.1 90.6 0 12.4-10.1 22.5-22.5 22.5s-22.5-10.1-22.5-22.5c0-21.8-14.4-45.6-35.1-45.6h-585c-20.7 0-39.9 23.9-39.9 45.6v512c0 21.8 16.8 39.4 37.5 39.4h585c20.7 0 37.5-17.7 37.5-39.4V576c0-12.4 10.1-22.5 22.5-22.5s22.5 10.1 22.5 22.5v180c-0.1 46.6-37.1 84.5-82.6 84.5z" fill="#FE7743" p-id="6175"></path></svg>