<?xml version="1.0" standalone="no"?><!DOCTYPE svg PUBLIC "-//W3C//DTD SVG 1.1//EN" "http://www.w3.org/Graphics/SVG/1.1/DTD/svg11.dtd"><svg t="1650095602436" class="icon" viewBox="0 0 1024 1024" version="1.1" xmlns="http://www.w3.org/2000/svg" p-id="10817" xmlns:xlink="http://www.w3.org/1999/xlink" width="200" height="200"><defs><style type="text/css">@font-face { font-family: feedback-iconfont; src: url("//at.alicdn.com/t/font_1031158_u69w8yhxdu.woff2?t=1630033759944") format("woff2"), url("//at.alicdn.com/t/font_1031158_u69w8yhxdu.woff?t=1630033759944") format("woff"), url("//at.alicdn.com/t/font_1031158_u69w8yhxdu.ttf?t=1630033759944") format("truetype"); }
</style></defs><path d="M697.685333 705.194667m-187.392 0a187.392 187.392 0 1 0 374.784 0 187.392 187.392 0 1 0-374.784 0Z" fill="#EDF4FF" p-id="10818"></path><path d="M530.432 789.162667a187.733333 187.733333 0 1 0 314.538667-199.338667z" fill="#D8E3F0" p-id="10819"></path><path d="M237.909333 756.053333h432.469334a34.133333 34.133333 0 0 1 34.133333 34.133334v102.4H203.776v-102.4a34.133333 34.133333 0 0 1 34.133333-34.133334z" fill="#F6716F" p-id="10820"></path><path d="M670.378667 756.053333H237.909333a34.133333 34.133333 0 0 0-34.133333 34.133334v33.109333a34.133333 34.133333 0 0 1 34.133333-34.133333h432.469334a34.133333 34.133333 0 0 1 34.133333 34.133333V790.186667a34.133333 34.133333 0 0 0-34.133333-34.133334z" fill="#F6A2A2" p-id="10821"></path><path d="M317.610667 697.685333h273.066666v56.832h-273.066666z" fill="#FFC670" p-id="10822"></path><path d="M374.442667 609.28h159.232v88.405333h-159.232z" fill="#FFA742" p-id="10823"></path><path d="M237.909333 131.413333l432.298667 0 0 56.832-432.298667 0 0-56.832Z" fill="#FFB75E" p-id="10824"></path><path d="M283.477333 187.733333h341.333334v330.410667a102.4 102.4 0 0 1-102.4 102.4h-136.533334a102.4 102.4 0 0 1-102.4-102.4V187.733333z" fill="#FFC670" p-id="10825"></path><path d="M522.410667 557.226667h-136.533334a102.4 102.4 0 0 1-102.4-102.4v63.317333a102.4 102.4 0 0 0 102.4 102.4h136.533334a102.4 102.4 0 0 0 102.4-102.4v-63.317333a102.4 102.4 0 0 1-102.4 102.4z" fill="#FFA742" p-id="10826"></path><path d="M457.216 276.309333l30.378667 61.44a3.072 3.072 0 0 0 2.389333 1.877334l68.266667 9.898666a3.413333 3.413333 0 0 1 1.877333 5.632l-49.152 47.957334a3.072 3.072 0 0 0-1.024 2.901333l11.605333 68.266667a3.413333 3.413333 0 0 1-4.778666 3.584l-61.098667-32.597334a3.242667 3.242667 0 0 0-3.072 0L392.533333 477.866667a3.413333 3.413333 0 0 1-4.778666-3.584l11.605333-68.266667a3.072 3.072 0 0 0-1.024-2.901333l-49.152-47.957334a3.413333 3.413333 0 0 1 1.877333-5.632l68.266667-9.898666a3.584 3.584 0 0 0 2.56-1.877334l30.378667-61.44a3.242667 3.242667 0 0 1 4.949333 0z" fill="#FFDEAD" p-id="10827"></path><path d="M399.872 492.202667l54.272-28.501334 54.272 28.501334a20.48 20.48 0 0 0 29.696-21.504L527.701333 409.6l44.032-42.837333a20.650667 20.650667 0 0 0 5.12-20.992 20.138667 20.138667 0 0 0-17.066666-13.824L499.712 324.266667l-27.306667-54.954667a19.968 19.968 0 0 0-18.261333-11.434667 20.309333 20.309333 0 0 0-18.261333 11.434667L409.6 324.266667l-60.757333 8.874666a20.138667 20.138667 0 0 0-17.066667 13.824 20.48 20.48 0 0 0 5.290667 20.992L380.586667 409.6l-10.410667 60.416A20.48 20.48 0 0 0 390.314667 494.933333a19.456 19.456 0 0 0 9.557333-2.730666z m-19.456-129.877334l40.448-5.802666a20.48 20.48 0 0 0 15.189333-11.093334l18.090667-36.693333 18.090667 36.522667a20.309333 20.309333 0 0 0 15.36 11.264l40.277333 5.802666-29.184 28.501334a20.309333 20.309333 0 0 0-5.802667 18.773333l6.826667 40.106667-36.181333-19.626667a19.968 19.968 0 0 0-9.386667-2.218667 21.162667 21.162667 0 0 0-9.557333 2.218667l-36.010667 18.944 6.826667-40.106667A20.309333 20.309333 0 0 0 409.6 390.826667zM545.109333 807.253333H363.178667a17.066667 17.066667 0 0 0 0 34.133334h181.930666a17.066667 17.066667 0 0 0 0-34.133334z" fill="#3D3D63" p-id="10828"></path><path d="M887.466667 875.52h-76.970667a204.8 204.8 0 0 0-168.618667-366.762667v-20.48A100.352 100.352 0 0 0 694.954667 460.8L733.866667 421.717333a73.216 73.216 0 0 0 21.674666-52.224v-90.282666a51.2 51.2 0 0 0-51.2-51.2h-62.464V204.8a45.568 45.568 0 1 0 0-90.965333h-375.466666a45.568 45.568 0 1 0 0 90.965333v22.698667h-62.634667a51.2 51.2 0 0 0-51.2 51.2v90.282666a73.557333 73.557333 0 0 0 21.674667 52.224L213.333333 460.8a99.157333 99.157333 0 0 0 53.077334 27.477333v29.866667a119.466667 119.466667 0 0 0 90.965333 115.882667v46.592h-39.765333a17.066667 17.066667 0 0 0-17.066667 17.066666v41.301334h-62.634667a51.2 51.2 0 0 0-51.2 51.2v85.333333H136.533333a17.066667 17.066667 0 0 0 0 34.133333h750.933334a17.066667 17.066667 0 0 0 0-34.133333zM686.592 646.485333l-11.264-2.56 27.306667-27.306666 39.253333 8.533333-29.525333 136.533333a51.2 51.2 0 0 0-28.672-20.138666l16.042666-74.752a17.066667 17.066667 0 0 0-13.141333-20.309334z m181.418667 58.709334a170.666667 170.666667 0 0 1-146.432 168.448v-40.448a17.066667 17.066667 0 0 0 12.970666-12.970667l44.373334-204.8a17.066667 17.066667 0 0 0-13.141334-20.309333l-65.024-14.165334a17.066667 17.066667 0 0 0-15.701333 4.608l-55.978667 55.978667a17.066667 17.066667 0 0 0 8.533334 28.842667l25.088 5.461333-14.165334 63.146667h-40.789333v-41.301334a17.066667 17.066667 0 0 0-17.066667-17.066666h-39.765333v-46.592A119.466667 119.466667 0 0 0 638.634667 546.133333a169.472 169.472 0 0 1 229.376 159.402667z m-163.498667-443.733334a17.066667 17.066667 0 0 1 17.066667 17.066667v90.282667a39.082667 39.082667 0 0 1-11.776 28.16l-38.912 38.912a64.341333 64.341333 0 0 1-29.013334 17.066666V262.144z m-449.536-102.4a11.434667 11.434667 0 0 1 11.434667-11.264h375.466666a11.434667 11.434667 0 1 1 0 22.698667h-375.466666a11.434667 11.434667 0 0 1-11.434667-10.752z m-17.066667 276.821334l-39.424-38.229334a39.765333 39.765333 0 0 1-11.776-28.16v-90.282666a17.066667 17.066667 0 0 1 17.066667-17.066667h62.634667v190.976a65.194667 65.194667 0 0 1-29.013334-16.554667z m63.146667 81.578666V204.8h307.2v313.344a85.333333 85.333333 0 0 1-85.333333 85.333333h-136.533334a85.333333 85.333333 0 0 1-85.845333-85.333333z m90.965333 119.466667h125.269334v43.008h-125.781334z m-56.832 77.141333h238.933334v24.917334h-238.933334z m-114.346666 76.117334a17.066667 17.066667 0 0 1 17.066666-17.066667h432.469334a17.066667 17.066667 0 0 1 17.066666 17.066667v85.333333H220.842667z" fill="#3D3D63" p-id="10829"></path></svg>