<?xml version="1.0" standalone="no"?><!DOCTYPE svg PUBLIC "-//W3C//DTD SVG 1.1//EN" "http://www.w3.org/Graphics/SVG/1.1/DTD/svg11.dtd"><svg t="1650095555055" class="icon" viewBox="0 0 1024 1024" version="1.1" xmlns="http://www.w3.org/2000/svg" p-id="9277" xmlns:xlink="http://www.w3.org/1999/xlink" width="200" height="200"><defs><style type="text/css">@font-face { font-family: feedback-iconfont; src: url("//at.alicdn.com/t/font_1031158_u69w8yhxdu.woff2?t=1630033759944") format("woff2"), url("//at.alicdn.com/t/font_1031158_u69w8yhxdu.woff?t=1630033759944") format("woff"), url("//at.alicdn.com/t/font_1031158_u69w8yhxdu.ttf?t=1630033759944") format("truetype"); }
</style></defs><path d="M956.352332 528.622644c-3.036666-242.871216-200.752993-438.849079-444.352332-438.84908s-441.315665 195.977864-444.352332 438.84908h888.704664z" fill="#F9858B" p-id="9278"></path><path d="M914.160732 799.653577V408.369529c0-19.715754-16.204961-35.751384-36.118267-35.751383H660.16448V253.939808a35.790894 35.790894 0 0 0-35.757028-35.751383h-221.992724a35.796538 35.796538 0 0 0-35.757028 35.751383v254.927572H148.971624c-20.020549 0-36.310175 16.041274-36.310175 35.757027v254.927572h-0.93132a35.796538 35.796538 0 0 0-35.757028 35.757028v63.160401a35.796538 35.796538 0 0 0 35.757028 35.751384h800.539742a35.796538 35.796538 0 0 0 35.757028-35.751384v-63.160401c0-19.077941-15.030934-34.662022-33.866167-35.65543z" fill="#61585C" p-id="9279"></path><path d="M660.16448 412.123029h214.485724v387.42895h-214.485724z" fill="#FAD769" p-id="9280"></path><path d="M406.168228 257.698953h214.485724V799.551979h-214.485724V544.624407z" fill="#F9626B" p-id="9281"></path><path d="M152.171977 548.377908h214.485723v251.174071h-214.485723z" fill="#ACFB6F" p-id="9282"></path><path d="M908.516371 894.715908H115.483629v-55.653401h793.032742z" fill="#C3BDC3" p-id="9283"></path><path d="M470.73972 340.535597h28.88784v106.24381h30.095734V311.754999h-41.254636zM774.0056 567.92433l9.984875-10.515445c11.762849-12.236975 19.997972-23.034638 24.47395-32.11077 4.543711-9.194664 6.84661-17.960357 6.84661-26.048727 0-6.925631-1.947305-13.800463-5.78547-20.44952-3.849454-6.671635-9.0592-11.853158-15.50506-15.403462-6.400706-3.527726-13.856907-5.311344-22.165406-5.311344-13.43358 0-24.615059 4.312292-33.245288 12.818344-8.607651 8.47783-13.315048 20.18988-13.992371 34.81442l-0.135464 2.946357h29.689339l0.101599-2.720583c0.208841-6.028178 1.862639-10.814596 4.910594-14.22379 2.985867-3.330173 6.615191-4.950105 11.09117-4.950104 4.492911 0 8.031926 1.326425 10.82024 4.075228 2.771381 2.720582 4.120384 6.101554 4.120384 10.346114 0 4.312292-1.5014 9.290618-4.453401 14.80516-3.053599 5.678227-9.386573 13.405358-18.840878 22.966905l-40.82002 41.632808v15.764701h95.271172v-28.430647h-42.366575zM285.390189 654.37901a34.097586 34.097586 0 0 0 9.44866-9.414794c3.431772-5.192812 5.170235-11.012149 5.170235-17.294323 0-10.03003-3.922831-18.801367-11.66125-26.06566-7.68762-7.213494-17.3169-10.876684-28.622556-10.876684-12.637725 0-23.294278 4.363091-31.659221 12.99332-6.039466 6.22573-9.7591 14.511653-11.068593 24.64328l-0.406394 3.18342h28.944284l0.615236-1.986815c0.88052-2.844758 2.477875-5.091214 4.882372-6.891765a12.790122 12.790122 0 0 1 7.896461-2.647205c3.273729 0 5.808048 0.88052 7.744064 2.703649 1.885217 1.783618 2.805247 3.97363 2.805247 6.705501 0 2.139213-0.632168 4.120384-1.94166 6.073332-1.343358 1.998104-3.189064 3.539014-5.644361 4.696109-2.573829 1.224826-6.699857 2.071481-12.242619 2.506096l-2.602051 0.203197v26.500276l2.788315 0.033866c8.929379 0.118532 15.781634 2.009393 20.353566 5.633072 4.425179 3.516437 6.581325 7.659398 6.581325 12.654658 0 4.588866-1.574777 8.353655-4.820284 11.53143-3.262441 3.18342-7.292515 4.741263-12.321641 4.741263-4.825929 0-8.686672-1.360291-11.785426-4.15425-3.098754-2.799603-5.147657-7.253004-6.09591-13.264248l-0.378172-2.381921H211.6071l0.174975 2.985867c0.801499 13.749664 5.469386 24.812612 13.885128 32.878404 8.415742 8.077081 19.405314 12.174887 32.646985 12.174887 13.935928 0 25.591533-4.334869 34.650733-12.863499 9.109999-8.579429 13.732731-19.190828 13.732731-31.563268 0-8.500408-2.427075-16.018697-7.213494-22.329092a36.417418 36.417418 0 0 0-14.093969-11.108103z" fill="#F9FBFB" p-id="9284"></path></svg>