<?xml version="1.0" standalone="no"?><!DOCTYPE svg PUBLIC "-//W3C//DTD SVG 1.1//EN" "http://www.w3.org/Graphics/SVG/1.1/DTD/svg11.dtd"><svg t="1650095448707" class="icon" viewBox="0 0 1024 1024" version="1.1" xmlns="http://www.w3.org/2000/svg" p-id="8200" xmlns:xlink="http://www.w3.org/1999/xlink" width="200" height="200"><defs><style type="text/css">@font-face { font-family: feedback-iconfont; src: url("//at.alicdn.com/t/font_1031158_u69w8yhxdu.woff2?t=1630033759944") format("woff2"), url("//at.alicdn.com/t/font_1031158_u69w8yhxdu.woff?t=1630033759944") format("woff"), url("//at.alicdn.com/t/font_1031158_u69w8yhxdu.ttf?t=1630033759944") format("truetype"); }
</style></defs><path d="M896.174 64.191l-832.162 0.078v831.693l384.075-0.322v-63.919l-320.062 0.367-0.035-703.775h704.171v127.64h64.012V64.191z" p-id="8201" fill="#1296db"></path><path d="M192.037 320.194h384.075v-63.919H192.037v63.919z m0 127.768l320.062 0.069v-63.919H192.037v63.85z m0 128.317h192.037v-63.891l-192.037-0.028v63.919z m0 0M768.105 368.128l-32.034-50.338-31.979 50.338v399.674h64.013z" p-id="8202" fill="#1296db"></path><path d="M704.137 448.209l31.934-130.419-159.959 194.337v86.748zM768.149 448.209L896.174 598.75v-86.623L736.071 317.789zM576.112 831.721h320.062v63.919H576.112z" p-id="8203" fill="#1296db"></path></svg>