<?xml version="1.0" standalone="no"?><!DOCTYPE svg PUBLIC "-//W3C//DTD SVG 1.1//EN" "http://www.w3.org/Graphics/SVG/1.1/DTD/svg11.dtd"><svg t="1650095722228" class="icon" viewBox="0 0 1332 1024" version="1.1" xmlns="http://www.w3.org/2000/svg" p-id="11714" xmlns:xlink="http://www.w3.org/1999/xlink" width="260.15625" height="200"><defs><style type="text/css">@font-face { font-family: feedback-iconfont; src: url("//at.alicdn.com/t/font_1031158_u69w8yhxdu.woff2?t=1630033759944") format("woff2"), url("//at.alicdn.com/t/font_1031158_u69w8yhxdu.woff?t=1630033759944") format("woff"), url("//at.alicdn.com/t/font_1031158_u69w8yhxdu.ttf?t=1630033759944") format("truetype"); }
</style></defs><path d="M1315.41416 444.123297l-193.019175 192.916777c-12.825279 12.79968-18.661933 31.231219-15.641209 49.304367l45.566861 272.377191c6.01585 36.0183-21.861853 65.252769-53.528262 65.252769-8.345391 0-16.972376-2.047949-25.317767-6.527837l-238.586035-128.611185a53.349066 53.349066 0 0 0-50.609935-0.076798l-238.662833 128.508787a52.990675 52.990675 0 0 1-25.343367 6.297443c-31.666408 0-59.697708-29.61846-53.681858-65.636759l45.720457-272.300393C513.207015 629.20667 460.98432 665.58336 460.98432 665.58336c-2.150346-0.742381-21.503462-1.049574-38.911027 12.0317L281.7888 767.9808c-7.60301 5.683058-42.955726 25.59936-51.19872 25.59936-21.247469 0-26.060148-26.674533-25.59936-51.19872v-179.19552c0.255994-13.516462-12.79968-26.879328-23.705007-34.661533L17.040219 411.074523c-27.442514-19.634709-20.453889-62.692833 11.852504-72.830179l193.326366-60.82408c12.825279-4.0191 22.911427-14.335642 26.956127-27.263318l61.156871-195.041524c5.887853-18.713132 22.527437-29.695258 39.269418-29.695258 12.364491 0 24.754581 4.0191 32.946376 15.794806l115.683508 163.17032c7.577411 10.854129 19.916302 11.18692 33.099973 11.186921h0.588785l108.822879 4.556686c-8.089398 15.718007-22.885828 32.767181-40.088597 35.327117l-148.450689 15.9996L358.58688 127.9968l-34.866328 147.477913c3.19992-10.137347-12.441289 58.648134-78.692433 79.460414L102.59328 383.9904l123.337717 78.103648c32.511187 23.244219 56.625784 60.440089 55.857803 101.091872v127.9968l94.180046-78.948426C419.052569 579.902302 492.727527 589.322867 460.98432 588.78528l-153.59616-153.59616c16.40919 16.40919-64.663983-46.258044 25.59936-76.79808l179.19552-25.59936 76.79808-25.59936c28.594485-4.249494 76.081298-100.631084 51.19872-51.19872l120.675384-224.941576A53.60506 53.60506 0 0 1 809.596405 0c19.378716 0 38.757431 10.367741 48.715582 31.052024l119.318617 247.827404a54.449839 54.449839 0 0 0 40.907777 30.488838l266.796531 39.730207c44.568486 6.655834 62.360041 62.79523 30.079248 95.024824z m-308.088298-55.038624c-43.160521-6.425439-80.509987-34.584735-99.863104-74.826929l-97.866353-203.898903L691.37856 307.19232c10.39334-21.60586-51.19872 76.79808-51.19872 76.79808l-246.137846 37.835854 170.542936 149.884253 25.752956 113.277168C571.496757 767.929602 537.7824 947.176321 537.7824 947.176321l208.276393-129.148772c-18.482738 9.958151 8.575786-9.369366 61.899253-9.57416-58.80173 0.742381 39.474213-3.839904 63.128022 8.908577L1075.368961 921.576961l-51.19872-281.592961c3.251119 19.481113-15.154821-2.227144 43.698107-61.105672l157.256869-157.20567-217.799355-32.587985z" p-id="11715" fill="#1afa29"></path></svg>